<svg width="2500px" height="2500px"
 viewBox="0.00 0.00 2076.05 920.31" xmlns="http://www.w3.org/2000/svg" xmlns:xlink="http://www.w3.org/1999/xlink">
<g id="graph0" class="graph" transform="scale(1.0 1.0) rotate(0) translate(4 916.3128)">
<title>%0</title>
<polygon fill="#ffffff" stroke="transparent" points="-4,4 -4,-916.3128 2072.0505,-916.3128 2072.0505,4 -4,4"/>
<!-- 3 -->
<g id="node1" class="node">
<title>3</title>
<ellipse fill="none" stroke="#000000" cx="1148.4282" cy="-693.2346" rx="77.675" ry="29.3315"/>
<text text-anchor="middle" x="1148.4282" y="-697.4346" font-family="Times,serif" font-size="14.00" fill="#000000"> STATEMENT</text>
<text text-anchor="middle" x="1148.4282" y="-680.6346" font-family="Times,serif" font-size="14.00" fill="#000000">java.util.Scanner</text>
</g>
<!-- 2 -->
<g id="node2" class="node">
<title>2</title>
<ellipse fill="none" stroke="#000000" cx="1150.4282" cy="-788.0659" rx="49.8579" ry="18"/>
<text text-anchor="middle" x="1150.4282" y="-783.8659" font-family="Times,serif" font-size="14.00" fill="#000000"> IMPORT</text>
</g>
<!-- 2&#45;&gt;3 -->
<g id="edge1" class="edge">
<title>2&#45;&gt;3</title>
<path fill="none" stroke="#000000" d="M1150.0426,-769.7815C1149.8205,-759.2492 1149.5323,-745.586 1149.2611,-732.7237"/>
<polygon fill="#000000" stroke="#000000" points="1152.7589,-732.5791 1149.0487,-722.6552 1145.7604,-732.7268 1152.7589,-732.5791"/>
</g>
<!-- 8 -->
<g id="node3" class="node">
<title>8</title>
<ellipse fill="none" stroke="#000000" cx="59.4282" cy="-408.7408" rx="59.3565" ry="29.3315"/>
<text text-anchor="middle" x="59.4282" y="-412.9408" font-family="Times,serif" font-size="14.00" fill="#000000"> VARTYPE</text>
<text text-anchor="middle" x="59.4282" y="-396.1408" font-family="Times,serif" font-size="14.00" fill="#000000">val</text>
</g>
<!-- 9 -->
<g id="node4" class="node">
<title>9</title>
<ellipse fill="none" stroke="#000000" cx="183.4282" cy="-408.7408" rx="46.4831" ry="29.3315"/>
<text text-anchor="middle" x="183.4282" y="-412.9408" font-family="Times,serif" font-size="14.00" fill="#000000"> ID</text>
<text text-anchor="middle" x="183.4282" y="-396.1408" font-family="Times,serif" font-size="14.00" fill="#000000"> scanner </text>
</g>
<!-- 10 -->
<g id="node5" class="node">
<title>10</title>
<ellipse fill="none" stroke="#000000" cx="298.4282" cy="-408.7408" rx="50.7959" ry="29.3315"/>
<text text-anchor="middle" x="298.4282" y="-412.9408" font-family="Times,serif" font-size="14.00" fill="#000000"> TYPE</text>
<text text-anchor="middle" x="298.4282" y="-396.1408" font-family="Times,serif" font-size="14.00" fill="#000000">undefined</text>
</g>
<!-- 7 -->
<g id="node6" class="node">
<title>7</title>
<ellipse fill="none" stroke="#000000" cx="241.4282" cy="-503.5721" rx="63.6457" ry="29.3315"/>
<text text-anchor="middle" x="241.4282" y="-507.7721" font-family="Times,serif" font-size="14.00" fill="#000000"> VARIABLE</text>
<text text-anchor="middle" x="241.4282" y="-490.9721" font-family="Times,serif" font-size="14.00" fill="#000000">variable</text>
</g>
<!-- 7&#45;&gt;8 -->
<g id="edge2" class="edge">
<title>7&#45;&gt;8</title>
<path fill="none" stroke="#000000" d="M198.7573,-481.3383C172.1379,-467.4683 137.7459,-449.5483 109.792,-434.9829"/>
<polygon fill="#000000" stroke="#000000" points="111.0651,-431.6996 100.5794,-430.1826 107.8304,-437.9075 111.0651,-431.6996"/>
</g>
<!-- 7&#45;&gt;9 -->
<g id="edge3" class="edge">
<title>7&#45;&gt;9</title>
<path fill="none" stroke="#000000" d="M224.0263,-475.1196C218.1937,-465.5832 211.6118,-454.8215 205.4719,-444.7827"/>
<polygon fill="#000000" stroke="#000000" points="208.4235,-442.9005 200.22,-436.1958 202.4519,-446.5529 208.4235,-442.9005"/>
</g>
<!-- 7&#45;&gt;10 -->
<g id="edge4" class="edge">
<title>7&#45;&gt;10</title>
<path fill="none" stroke="#000000" d="M258.5301,-475.1196C264.1038,-465.8466 270.3738,-455.4151 276.2636,-445.6162"/>
<polygon fill="#000000" stroke="#000000" points="279.3829,-447.2204 281.5348,-436.8464 273.3833,-443.6142 279.3829,-447.2204"/>
</g>
<!-- 12 -->
<g id="node7" class="node">
<title>12</title>
<ellipse fill="none" stroke="#000000" cx="440.4282" cy="-408.7408" rx="72.7447" ry="29.3315"/>
<text text-anchor="middle" x="440.4282" y="-412.9408" font-family="Times,serif" font-size="14.00" fill="#000000"> STATEMENT</text>
<text text-anchor="middle" x="440.4282" y="-396.1408" font-family="Times,serif" font-size="14.00" fill="#000000"> 5 </text>
</g>
<!-- 13 -->
<g id="node8" class="node">
<title>13</title>
<ellipse fill="none" stroke="#000000" cx="603.4282" cy="-408.7408" rx="72.7447" ry="29.3315"/>
<text text-anchor="middle" x="603.4282" y="-412.9408" font-family="Times,serif" font-size="14.00" fill="#000000"> STATEMENT</text>
<text text-anchor="middle" x="603.4282" y="-396.1408" font-family="Times,serif" font-size="14.00" fill="#000000"> 5</text>
</g>
<!-- 11 -->
<g id="node9" class="node">
<title>11</title>
<ellipse fill="none" stroke="#000000" cx="522.4282" cy="-503.5721" rx="73.9608" ry="29.3315"/>
<text text-anchor="middle" x="522.4282" y="-507.7721" font-family="Times,serif" font-size="14.00" fill="#000000"> EXPRESSION</text>
<text text-anchor="middle" x="522.4282" y="-490.9721" font-family="Times,serif" font-size="14.00" fill="#000000">+</text>
</g>
<!-- 11&#45;&gt;12 -->
<g id="edge5" class="edge">
<title>11&#45;&gt;12</title>
<path fill="none" stroke="#000000" d="M498.269,-475.6325C489.8363,-465.8802 480.2532,-454.7975 471.3467,-444.4974"/>
<polygon fill="#000000" stroke="#000000" points="473.8864,-442.0834 464.6981,-436.8084 468.5914,-446.662 473.8864,-442.0834"/>
</g>
<!-- 11&#45;&gt;13 -->
<g id="edge6" class="edge">
<title>11&#45;&gt;13</title>
<path fill="none" stroke="#000000" d="M546.2928,-475.6325C554.6227,-465.8802 564.0889,-454.7975 572.8868,-444.4974"/>
<polygon fill="#000000" stroke="#000000" points="575.6208,-446.6854 579.4543,-436.8084 570.2982,-442.139 575.6208,-446.6854"/>
</g>
<!-- 6 -->
<g id="node10" class="node">
<title>6</title>
<ellipse fill="none" stroke="#000000" cx="522.4282" cy="-598.4033" rx="73.9608" ry="29.3315"/>
<text text-anchor="middle" x="522.4282" y="-602.6033" font-family="Times,serif" font-size="14.00" fill="#000000"> EXPRESSION</text>
<text text-anchor="middle" x="522.4282" y="-585.8033" font-family="Times,serif" font-size="14.00" fill="#000000">=</text>
</g>
<!-- 6&#45;&gt;7 -->
<g id="edge7" class="edge">
<title>6&#45;&gt;7</title>
<path fill="none" stroke="#000000" d="M465.9017,-579.3269C418.6715,-563.3878 351.4444,-540.7001 302.8871,-524.3131"/>
<polygon fill="#000000" stroke="#000000" points="303.7239,-520.9016 293.1297,-521.0202 301.4855,-527.5341 303.7239,-520.9016"/>
</g>
<!-- 6&#45;&gt;11 -->
<g id="edge8" class="edge">
<title>6&#45;&gt;11</title>
<path fill="none" stroke="#000000" d="M522.4282,-568.918C522.4282,-560.8005 522.4282,-551.8609 522.4282,-543.2688"/>
<polygon fill="#000000" stroke="#000000" points="525.9283,-543.0392 522.4282,-533.0392 518.9283,-543.0392 525.9283,-543.0392"/>
</g>
<!-- 16 -->
<g id="node11" class="node">
<title>16</title>
<ellipse fill="none" stroke="#000000" cx="753.4282" cy="-408.7408" rx="59.3565" ry="29.3315"/>
<text text-anchor="middle" x="753.4282" y="-412.9408" font-family="Times,serif" font-size="14.00" fill="#000000"> VARTYPE</text>
<text text-anchor="middle" x="753.4282" y="-396.1408" font-family="Times,serif" font-size="14.00" fill="#000000">val</text>
</g>
<!-- 17 -->
<g id="node12" class="node">
<title>17</title>
<ellipse fill="none" stroke="#000000" cx="857.4282" cy="-408.7408" rx="27" ry="29.3315"/>
<text text-anchor="middle" x="857.4282" y="-412.9408" font-family="Times,serif" font-size="14.00" fill="#000000"> ID</text>
<text text-anchor="middle" x="857.4282" y="-396.1408" font-family="Times,serif" font-size="14.00" fill="#000000"> lol </text>
</g>
<!-- 18 -->
<g id="node13" class="node">
<title>18</title>
<ellipse fill="none" stroke="#000000" cx="953.4282" cy="-408.7408" rx="50.7959" ry="29.3315"/>
<text text-anchor="middle" x="953.4282" y="-412.9408" font-family="Times,serif" font-size="14.00" fill="#000000"> TYPE</text>
<text text-anchor="middle" x="953.4282" y="-396.1408" font-family="Times,serif" font-size="14.00" fill="#000000">undefined</text>
</g>
<!-- 15 -->
<g id="node14" class="node">
<title>15</title>
<ellipse fill="none" stroke="#000000" cx="925.4282" cy="-503.5721" rx="63.6457" ry="29.3315"/>
<text text-anchor="middle" x="925.4282" y="-507.7721" font-family="Times,serif" font-size="14.00" fill="#000000"> VARIABLE</text>
<text text-anchor="middle" x="925.4282" y="-490.9721" font-family="Times,serif" font-size="14.00" fill="#000000">variable</text>
</g>
<!-- 15&#45;&gt;16 -->
<g id="edge9" class="edge">
<title>15&#45;&gt;16</title>
<path fill="none" stroke="#000000" d="M884.2299,-480.8576C859.604,-467.2802 828.1784,-449.9539 802.3022,-435.6872"/>
<polygon fill="#000000" stroke="#000000" points="803.8483,-432.5429 793.4012,-430.7797 800.4685,-438.6729 803.8483,-432.5429"/>
</g>
<!-- 15&#45;&gt;17 -->
<g id="edge10" class="edge">
<title>15&#45;&gt;17</title>
<path fill="none" stroke="#000000" d="M905.3938,-475.6325C897.4642,-464.5741 888.308,-451.8051 880.1343,-440.4061"/>
<polygon fill="#000000" stroke="#000000" points="882.7836,-438.0945 874.1119,-432.0074 877.0949,-442.1737 882.7836,-438.0945"/>
</g>
<!-- 15&#45;&gt;18 -->
<g id="edge11" class="edge">
<title>15&#45;&gt;18</title>
<path fill="none" stroke="#000000" d="M934.0576,-474.3458C936.5327,-465.9632 939.2717,-456.6866 941.8918,-447.8127"/>
<polygon fill="#000000" stroke="#000000" points="945.304,-448.6156 944.7791,-438.0338 938.5906,-446.6334 945.304,-448.6156"/>
</g>
<!-- 20 -->
<g id="node15" class="node">
<title>20</title>
<ellipse fill="none" stroke="#000000" cx="1095.4282" cy="-408.7408" rx="72.7447" ry="29.3315"/>
<text text-anchor="middle" x="1095.4282" y="-412.9408" font-family="Times,serif" font-size="14.00" fill="#000000"> STATEMENT</text>
<text text-anchor="middle" x="1095.4282" y="-396.1408" font-family="Times,serif" font-size="14.00" fill="#000000"> scanner </text>
</g>
<!-- 21 -->
<g id="node16" class="node">
<title>21</title>
<ellipse fill="none" stroke="#000000" cx="1258.4282" cy="-408.7408" rx="72.7447" ry="29.3315"/>
<text text-anchor="middle" x="1258.4282" y="-412.9408" font-family="Times,serif" font-size="14.00" fill="#000000"> STATEMENT</text>
<text text-anchor="middle" x="1258.4282" y="-396.1408" font-family="Times,serif" font-size="14.00" fill="#000000"> 1</text>
</g>
<!-- 19 -->
<g id="node17" class="node">
<title>19</title>
<ellipse fill="none" stroke="#000000" cx="1122.4282" cy="-503.5721" rx="73.9608" ry="29.3315"/>
<text text-anchor="middle" x="1122.4282" y="-507.7721" font-family="Times,serif" font-size="14.00" fill="#000000"> EXPRESSION</text>
<text text-anchor="middle" x="1122.4282" y="-490.9721" font-family="Times,serif" font-size="14.00" fill="#000000">+</text>
</g>
<!-- 19&#45;&gt;20 -->
<g id="edge12" class="edge">
<title>19&#45;&gt;20</title>
<path fill="none" stroke="#000000" d="M1114.0333,-474.0867C1111.6713,-465.7909 1109.0648,-456.6363 1106.5694,-447.8715"/>
<polygon fill="#000000" stroke="#000000" points="1109.9226,-446.8673 1103.818,-438.2079 1103.1902,-448.7841 1109.9226,-446.8673"/>
</g>
<!-- 19&#45;&gt;21 -->
<g id="edge13" class="edge">
<title>19&#45;&gt;21</title>
<path fill="none" stroke="#000000" d="M1159.2318,-477.9094C1175.8623,-466.3131 1195.6711,-452.5006 1213.1982,-440.2792"/>
<polygon fill="#000000" stroke="#000000" points="1215.3944,-443.0147 1221.5952,-434.424 1211.3906,-437.2728 1215.3944,-443.0147"/>
</g>
<!-- 14 -->
<g id="node18" class="node">
<title>14</title>
<ellipse fill="none" stroke="#000000" cx="1122.4282" cy="-598.4033" rx="73.9608" ry="29.3315"/>
<text text-anchor="middle" x="1122.4282" y="-602.6033" font-family="Times,serif" font-size="14.00" fill="#000000"> EXPRESSION</text>
<text text-anchor="middle" x="1122.4282" y="-585.8033" font-family="Times,serif" font-size="14.00" fill="#000000">=</text>
</g>
<!-- 14&#45;&gt;15 -->
<g id="edge14" class="edge">
<title>14&#45;&gt;15</title>
<path fill="none" stroke="#000000" d="M1075.2418,-575.6889C1046.2544,-561.735 1009.041,-543.8213 978.9554,-529.3388"/>
<polygon fill="#000000" stroke="#000000" points="980.3928,-526.1464 969.8643,-524.9626 977.3566,-532.4537 980.3928,-526.1464"/>
</g>
<!-- 14&#45;&gt;19 -->
<g id="edge15" class="edge">
<title>14&#45;&gt;19</title>
<path fill="none" stroke="#000000" d="M1122.4282,-568.918C1122.4282,-560.8005 1122.4282,-551.8609 1122.4282,-543.2688"/>
<polygon fill="#000000" stroke="#000000" points="1125.9283,-543.0392 1122.4282,-533.0392 1118.9283,-543.0392 1125.9283,-543.0392"/>
</g>
<!-- 24 -->
<g id="node19" class="node">
<title>24</title>
<ellipse fill="none" stroke="#000000" cx="1421.4282" cy="-408.7408" rx="72.7447" ry="29.3315"/>
<text text-anchor="middle" x="1421.4282" y="-412.9408" font-family="Times,serif" font-size="14.00" fill="#000000"> STATEMENT</text>
<text text-anchor="middle" x="1421.4282" y="-396.1408" font-family="Times,serif" font-size="14.00" fill="#000000">lol </text>
</g>
<!-- 25 -->
<g id="node20" class="node">
<title>25</title>
<ellipse fill="none" stroke="#000000" cx="1584.4282" cy="-408.7408" rx="72.7447" ry="29.3315"/>
<text text-anchor="middle" x="1584.4282" y="-412.9408" font-family="Times,serif" font-size="14.00" fill="#000000"> STATEMENT</text>
<text text-anchor="middle" x="1584.4282" y="-396.1408" font-family="Times,serif" font-size="14.00" fill="#000000"> 10 </text>
</g>
<!-- 23 -->
<g id="node21" class="node">
<title>23</title>
<ellipse fill="none" stroke="#000000" cx="1457.4282" cy="-503.5721" rx="73.9608" ry="29.3315"/>
<text text-anchor="middle" x="1457.4282" y="-507.7721" font-family="Times,serif" font-size="14.00" fill="#000000"> EXPRESSION</text>
<text text-anchor="middle" x="1457.4282" y="-490.9721" font-family="Times,serif" font-size="14.00" fill="#000000">&gt;</text>
</g>
<!-- 23&#45;&gt;24 -->
<g id="edge16" class="edge">
<title>23&#45;&gt;24</title>
<path fill="none" stroke="#000000" d="M1446.3333,-474.3458C1443.1169,-465.873 1439.5537,-456.487 1436.1521,-447.5265"/>
<polygon fill="#000000" stroke="#000000" points="1439.3698,-446.1406 1432.5485,-438.0338 1432.8255,-448.625 1439.3698,-446.1406"/>
</g>
<!-- 23&#45;&gt;25 -->
<g id="edge17" class="edge">
<title>23&#45;&gt;25</title>
<path fill="none" stroke="#000000" d="M1492.4677,-477.408C1507.5981,-466.1101 1525.4465,-452.7826 1541.3738,-440.8896"/>
<polygon fill="#000000" stroke="#000000" points="1543.5845,-443.607 1549.5031,-434.8195 1539.3963,-437.9982 1543.5845,-443.607"/>
</g>
<!-- 29 -->
<g id="node22" class="node">
<title>29</title>
<ellipse fill="none" stroke="#000000" cx="1569.4282" cy="-219.0782" rx="27" ry="29.3315"/>
<text text-anchor="middle" x="1569.4282" y="-223.2782" font-family="Times,serif" font-size="14.00" fill="#000000"> ID</text>
<text text-anchor="middle" x="1569.4282" y="-206.4782" font-family="Times,serif" font-size="14.00" fill="#000000">line</text>
</g>
<!-- 30 -->
<g id="node23" class="node">
<title>30</title>
<ellipse fill="none" stroke="#000000" cx="1646.4282" cy="-219.0782" rx="32.4695" ry="29.3315"/>
<text text-anchor="middle" x="1646.4282" y="-223.2782" font-family="Times,serif" font-size="14.00" fill="#000000"> ID</text>
<text text-anchor="middle" x="1646.4282" y="-206.4782" font-family="Times,serif" font-size="14.00" fill="#000000">lines </text>
</g>
<!-- 28 -->
<g id="node24" class="node">
<title>28</title>
<ellipse fill="none" stroke="#000000" cx="1641.4282" cy="-313.9095" rx="73.9608" ry="29.3315"/>
<text text-anchor="middle" x="1641.4282" y="-318.1095" font-family="Times,serif" font-size="14.00" fill="#000000"> EXPRESSION</text>
<text text-anchor="middle" x="1641.4282" y="-301.3095" font-family="Times,serif" font-size="14.00" fill="#000000">in</text>
</g>
<!-- 28&#45;&gt;29 -->
<g id="edge18" class="edge">
<title>28&#45;&gt;29</title>
<path fill="none" stroke="#000000" d="M1620.0208,-285.7137C1611.4816,-274.4667 1601.6238,-261.4831 1592.8909,-249.9809"/>
<polygon fill="#000000" stroke="#000000" points="1595.6003,-247.7614 1586.7656,-241.9133 1590.0251,-251.9944 1595.6003,-247.7614"/>
</g>
<!-- 28&#45;&gt;30 -->
<g id="edge19" class="edge">
<title>28&#45;&gt;30</title>
<path fill="none" stroke="#000000" d="M1642.9828,-284.4241C1643.4108,-276.3067 1643.8822,-267.3671 1644.3352,-258.7749"/>
<polygon fill="#000000" stroke="#000000" points="1647.8431,-258.7158 1644.8746,-248.5454 1640.8528,-258.3472 1647.8431,-258.7158"/>
</g>
<!-- 34 -->
<g id="node25" class="node">
<title>34</title>
<ellipse fill="none" stroke="#000000" cx="1581.4282" cy="-29.4156" rx="59.3565" ry="29.3315"/>
<text text-anchor="middle" x="1581.4282" y="-33.6156" font-family="Times,serif" font-size="14.00" fill="#000000"> VARTYPE</text>
<text text-anchor="middle" x="1581.4282" y="-16.8156" font-family="Times,serif" font-size="14.00" fill="#000000">val</text>
</g>
<!-- 35 -->
<g id="node26" class="node">
<title>35</title>
<ellipse fill="none" stroke="#000000" cx="1697.4282" cy="-29.4156" rx="38.622" ry="29.3315"/>
<text text-anchor="middle" x="1697.4282" y="-33.6156" font-family="Times,serif" font-size="14.00" fill="#000000"> ID</text>
<text text-anchor="middle" x="1697.4282" y="-16.8156" font-family="Times,serif" font-size="14.00" fill="#000000"> string </text>
</g>
<!-- 36 -->
<g id="node27" class="node">
<title>36</title>
<ellipse fill="none" stroke="#000000" cx="1805.4282" cy="-29.4156" rx="50.7959" ry="29.3315"/>
<text text-anchor="middle" x="1805.4282" y="-33.6156" font-family="Times,serif" font-size="14.00" fill="#000000"> TYPE</text>
<text text-anchor="middle" x="1805.4282" y="-16.8156" font-family="Times,serif" font-size="14.00" fill="#000000">undefined</text>
</g>
<!-- 33 -->
<g id="node28" class="node">
<title>33</title>
<ellipse fill="none" stroke="#000000" cx="1697.4282" cy="-124.2469" rx="63.6457" ry="29.3315"/>
<text text-anchor="middle" x="1697.4282" y="-128.4469" font-family="Times,serif" font-size="14.00" fill="#000000"> VARIABLE</text>
<text text-anchor="middle" x="1697.4282" y="-111.6469" font-family="Times,serif" font-size="14.00" fill="#000000">variable</text>
</g>
<!-- 33&#45;&gt;34 -->
<g id="edge20" class="edge">
<title>33&#45;&gt;34</title>
<path fill="none" stroke="#000000" d="M1666.037,-98.5842C1651.9968,-87.1062 1635.3008,-73.457 1620.4648,-61.3285"/>
<polygon fill="#000000" stroke="#000000" points="1622.4,-58.3898 1612.4426,-54.7703 1617.9695,-63.8093 1622.4,-58.3898"/>
</g>
<!-- 33&#45;&gt;35 -->
<g id="edge21" class="edge">
<title>33&#45;&gt;35</title>
<path fill="none" stroke="#000000" d="M1697.4282,-94.7615C1697.4282,-86.6441 1697.4282,-77.7045 1697.4282,-69.1123"/>
<polygon fill="#000000" stroke="#000000" points="1700.9283,-68.8828 1697.4282,-58.8828 1693.9283,-68.8828 1700.9283,-68.8828"/>
</g>
<!-- 33&#45;&gt;36 -->
<g id="edge22" class="edge">
<title>33&#45;&gt;36</title>
<path fill="none" stroke="#000000" d="M1727.2256,-98.0828C1740.2738,-86.6256 1755.6991,-73.0812 1769.3871,-61.0622"/>
<polygon fill="#000000" stroke="#000000" points="1772.0095,-63.4174 1777.2145,-54.1892 1767.3908,-58.1573 1772.0095,-63.4174"/>
</g>
<!-- 37 -->
<g id="node29" class="node">
<title>37</title>
<ellipse fill="none" stroke="#000000" cx="1851.4282" cy="-124.2469" rx="72.7447" ry="29.3315"/>
<text text-anchor="middle" x="1851.4282" y="-128.4469" font-family="Times,serif" font-size="14.00" fill="#000000"> STATEMENT</text>
<text text-anchor="middle" x="1851.4282" y="-111.6469" font-family="Times,serif" font-size="14.00" fill="#000000"> &#39;123&#39;</text>
</g>
<!-- 32 -->
<g id="node30" class="node">
<title>32</title>
<ellipse fill="none" stroke="#000000" cx="1774.4282" cy="-219.0782" rx="73.9608" ry="29.3315"/>
<text text-anchor="middle" x="1774.4282" y="-223.2782" font-family="Times,serif" font-size="14.00" fill="#000000"> EXPRESSION</text>
<text text-anchor="middle" x="1774.4282" y="-206.4782" font-family="Times,serif" font-size="14.00" fill="#000000">=</text>
</g>
<!-- 32&#45;&gt;33 -->
<g id="edge23" class="edge">
<title>32&#45;&gt;33</title>
<path fill="none" stroke="#000000" d="M1751.5342,-190.8825C1743.6287,-181.1463 1734.6665,-170.1086 1726.3427,-159.8572"/>
<polygon fill="#000000" stroke="#000000" points="1728.857,-157.4012 1719.8364,-151.8443 1723.4228,-161.8137 1728.857,-157.4012"/>
</g>
<!-- 32&#45;&gt;37 -->
<g id="edge24" class="edge">
<title>32&#45;&gt;37</title>
<path fill="none" stroke="#000000" d="M1797.3223,-190.8825C1805.0878,-181.3186 1813.8731,-170.4989 1822.0712,-160.4023"/>
<polygon fill="#000000" stroke="#000000" points="1824.9031,-162.4672 1828.4894,-152.4978 1819.4688,-158.0548 1824.9031,-162.4672"/>
</g>
<!-- 31 -->
<g id="node31" class="node">
<title>31</title>
<ellipse fill="none" stroke="#000000" cx="1774.4282" cy="-313.9095" rx="40.6109" ry="18"/>
<text text-anchor="middle" x="1774.4282" y="-309.7095" font-family="Times,serif" font-size="14.00" fill="#000000"> BODY</text>
</g>
<!-- 31&#45;&gt;32 -->
<g id="edge25" class="edge">
<title>31&#45;&gt;32</title>
<path fill="none" stroke="#000000" d="M1774.4282,-295.6251C1774.4282,-285.0928 1774.4282,-271.4296 1774.4282,-258.5673"/>
<polygon fill="#000000" stroke="#000000" points="1777.9283,-258.4987 1774.4282,-248.4988 1770.9283,-258.4988 1777.9283,-258.4987"/>
</g>
<!-- 27 -->
<g id="node32" class="node">
<title>27</title>
<ellipse fill="none" stroke="#000000" cx="1708.4282" cy="-408.7408" rx="33.0803" ry="29.3315"/>
<text text-anchor="middle" x="1708.4282" y="-412.9408" font-family="Times,serif" font-size="14.00" fill="#000000"> FOR</text>
<text text-anchor="middle" x="1708.4282" y="-396.1408" font-family="Times,serif" font-size="14.00" fill="#000000">for</text>
</g>
<!-- 27&#45;&gt;28 -->
<g id="edge26" class="edge">
<title>27&#45;&gt;28</title>
<path fill="none" stroke="#000000" d="M1690.8248,-383.825C1683.6569,-373.6796 1675.225,-361.7453 1667.3766,-350.6366"/>
<polygon fill="#000000" stroke="#000000" points="1670.148,-348.4936 1661.5191,-342.3459 1664.4309,-352.5328 1670.148,-348.4936"/>
</g>
<!-- 27&#45;&gt;31 -->
<g id="edge27" class="edge">
<title>27&#45;&gt;31</title>
<path fill="none" stroke="#000000" d="M1726.115,-383.3277C1735.5118,-369.8261 1747.037,-353.2662 1756.4737,-339.7072"/>
<polygon fill="#000000" stroke="#000000" points="1759.4903,-341.4999 1762.33,-331.2927 1753.7448,-337.5011 1759.4903,-341.4999"/>
</g>
<!-- 26 -->
<g id="node33" class="node">
<title>26</title>
<ellipse fill="none" stroke="#000000" cx="1627.4282" cy="-503.5721" rx="40.6109" ry="18"/>
<text text-anchor="middle" x="1627.4282" y="-499.3721" font-family="Times,serif" font-size="14.00" fill="#000000"> BODY</text>
</g>
<!-- 26&#45;&gt;27 -->
<g id="edge28" class="edge">
<title>26&#45;&gt;27</title>
<path fill="none" stroke="#000000" d="M1641.9094,-486.6181C1652.9145,-473.7339 1668.3644,-455.6458 1681.6047,-440.1446"/>
<polygon fill="#000000" stroke="#000000" points="1684.4584,-442.1925 1688.2919,-432.3155 1679.1358,-437.6461 1684.4584,-442.1925"/>
</g>
<!-- 22 -->
<g id="node34" class="node">
<title>22</title>
<ellipse fill="none" stroke="#000000" cx="1457.4282" cy="-598.4033" rx="27" ry="29.3315"/>
<text text-anchor="middle" x="1457.4282" y="-602.6033" font-family="Times,serif" font-size="14.00" fill="#000000"> IF</text>
<text text-anchor="middle" x="1457.4282" y="-585.8033" font-family="Times,serif" font-size="14.00" fill="#000000">if</text>
</g>
<!-- 22&#45;&gt;23 -->
<g id="edge29" class="edge">
<title>22&#45;&gt;23</title>
<path fill="none" stroke="#000000" d="M1457.4282,-568.918C1457.4282,-560.8005 1457.4282,-551.8609 1457.4282,-543.2688"/>
<polygon fill="#000000" stroke="#000000" points="1460.9283,-543.0392 1457.4282,-533.0392 1453.9283,-543.0392 1460.9283,-543.0392"/>
</g>
<!-- 22&#45;&gt;26 -->
<g id="edge30" class="edge">
<title>22&#45;&gt;26</title>
<path fill="none" stroke="#000000" d="M1481.7851,-584.8163C1510.9891,-568.5254 1560.1216,-541.1178 1593.1481,-522.6946"/>
<polygon fill="#000000" stroke="#000000" points="1594.9782,-525.6815 1602.0062,-517.7532 1591.568,-519.5683 1594.9782,-525.6815"/>
</g>
<!-- 40 -->
<g id="node35" class="node">
<title>40</title>
<ellipse fill="none" stroke="#000000" cx="1832.4282" cy="-408.7408" rx="72.7447" ry="29.3315"/>
<text text-anchor="middle" x="1832.4282" y="-412.9408" font-family="Times,serif" font-size="14.00" fill="#000000"> STATEMENT</text>
<text text-anchor="middle" x="1832.4282" y="-396.1408" font-family="Times,serif" font-size="14.00" fill="#000000"> lol </text>
</g>
<!-- 41 -->
<g id="node36" class="node">
<title>41</title>
<ellipse fill="none" stroke="#000000" cx="1995.4282" cy="-408.7408" rx="72.7447" ry="29.3315"/>
<text text-anchor="middle" x="1995.4282" y="-412.9408" font-family="Times,serif" font-size="14.00" fill="#000000"> STATEMENT</text>
<text text-anchor="middle" x="1995.4282" y="-396.1408" font-family="Times,serif" font-size="14.00" fill="#000000"> 2</text>
</g>
<!-- 39 -->
<g id="node37" class="node">
<title>39</title>
<ellipse fill="none" stroke="#000000" cx="1832.4282" cy="-503.5721" rx="73.9608" ry="29.3315"/>
<text text-anchor="middle" x="1832.4282" y="-507.7721" font-family="Times,serif" font-size="14.00" fill="#000000"> EXPRESSION</text>
<text text-anchor="middle" x="1832.4282" y="-490.9721" font-family="Times,serif" font-size="14.00" fill="#000000">*</text>
</g>
<!-- 39&#45;&gt;40 -->
<g id="edge31" class="edge">
<title>39&#45;&gt;40</title>
<path fill="none" stroke="#000000" d="M1832.4282,-474.0867C1832.4282,-465.9693 1832.4282,-457.0296 1832.4282,-448.4375"/>
<polygon fill="#000000" stroke="#000000" points="1835.9283,-448.2079 1832.4282,-438.2079 1828.9283,-448.208 1835.9283,-448.2079"/>
</g>
<!-- 39&#45;&gt;41 -->
<g id="edge32" class="edge">
<title>39&#45;&gt;41</title>
<path fill="none" stroke="#000000" d="M1874.4048,-479.1507C1895.9726,-466.6027 1922.413,-451.2201 1945.0727,-438.037"/>
<polygon fill="#000000" stroke="#000000" points="1946.9928,-440.9692 1953.8763,-432.9151 1943.4727,-434.9186 1946.9928,-440.9692"/>
</g>
<!-- 38 -->
<g id="node38" class="node">
<title>38</title>
<ellipse fill="none" stroke="#000000" cx="1711.4282" cy="-598.4033" rx="52.1456" ry="18"/>
<text text-anchor="middle" x="1711.4282" y="-594.2033" font-family="Times,serif" font-size="14.00" fill="#000000"> RETURN</text>
</g>
<!-- 38&#45;&gt;39 -->
<g id="edge33" class="edge">
<title>38&#45;&gt;39</title>
<path fill="none" stroke="#000000" d="M1732.5048,-581.885C1748.5726,-569.2922 1771.2115,-551.5494 1790.8785,-536.1358"/>
<polygon fill="#000000" stroke="#000000" points="1793.1016,-538.8404 1798.8134,-529.917 1788.7836,-533.3308 1793.1016,-538.8404"/>
</g>
<!-- 5 -->
<g id="node39" class="node">
<title>5</title>
<ellipse fill="none" stroke="#000000" cx="1285.4282" cy="-693.2346" rx="40.6109" ry="18"/>
<text text-anchor="middle" x="1285.4282" y="-689.0346" font-family="Times,serif" font-size="14.00" fill="#000000"> BODY</text>
</g>
<!-- 5&#45;&gt;6 -->
<g id="edge34" class="edge">
<title>5&#45;&gt;6</title>
<path fill="none" stroke="#000000" d="M1264.0235,-677.8353C1255.5192,-672.4875 1245.3979,-667.0306 1235.4282,-663.819 1120.4489,-626.7804 769.0837,-608.2764 606.5395,-601.5127"/>
<polygon fill="#000000" stroke="#000000" points="606.2459,-597.9978 596.1106,-601.0841 605.9584,-604.9919 606.2459,-597.9978"/>
</g>
<!-- 5&#45;&gt;14 -->
<g id="edge35" class="edge">
<title>5&#45;&gt;14</title>
<path fill="none" stroke="#000000" d="M1260.7797,-678.6873C1252.7077,-673.9357 1243.6917,-668.6415 1235.4282,-663.819 1215.1397,-651.9787 1192.7602,-639.0051 1173.3072,-627.7559"/>
<polygon fill="#000000" stroke="#000000" points="1175.0025,-624.6932 1164.5932,-622.7189 1171.4994,-630.7536 1175.0025,-624.6932"/>
</g>
<!-- 5&#45;&gt;22 -->
<g id="edge36" class="edge">
<title>5&#45;&gt;22</title>
<path fill="none" stroke="#000000" d="M1311.1784,-679.0374C1341.3313,-662.4128 1391.3423,-634.8395 1424.3454,-616.6434"/>
<polygon fill="#000000" stroke="#000000" points="1426.1051,-619.67 1433.1724,-611.7767 1422.7253,-613.5399 1426.1051,-619.67"/>
</g>
<!-- 5&#45;&gt;38 -->
<g id="edge37" class="edge">
<title>5&#45;&gt;38</title>
<path fill="none" stroke="#000000" d="M1322.1174,-685.0673C1397.4208,-668.3041 1569.7234,-629.9481 1657.657,-610.3733"/>
<polygon fill="#000000" stroke="#000000" points="1658.4369,-613.7854 1667.4374,-608.1961 1656.9158,-606.9527 1658.4369,-613.7854"/>
</g>
<!-- 4 -->
<g id="node40" class="node">
<title>4</title>
<ellipse fill="none" stroke="#000000" cx="1283.4282" cy="-788.0659" rx="63.6457" ry="29.3315"/>
<text text-anchor="middle" x="1283.4282" y="-792.2659" font-family="Times,serif" font-size="14.00" fill="#000000"> FUNCTION</text>
<text text-anchor="middle" x="1283.4282" y="-775.4659" font-family="Times,serif" font-size="14.00" fill="#000000">main</text>
</g>
<!-- 4&#45;&gt;5 -->
<g id="edge38" class="edge">
<title>4&#45;&gt;5</title>
<path fill="none" stroke="#000000" d="M1284.0501,-758.5805C1284.2994,-746.7582 1284.5855,-733.1919 1284.8322,-721.4951"/>
<polygon fill="#000000" stroke="#000000" points="1288.3338,-721.4539 1285.0455,-711.3823 1281.3353,-721.3063 1288.3338,-721.4539"/>
</g>
<!-- 1 -->
<g id="node41" class="node">
<title>1</title>
<ellipse fill="none" stroke="#000000" cx="1216.4282" cy="-882.8972" rx="42.8576" ry="29.3315"/>
<text text-anchor="middle" x="1216.4282" y="-887.0972" font-family="Times,serif" font-size="14.00" fill="#000000"> FILE</text>
<text text-anchor="middle" x="1216.4282" y="-870.2972" font-family="Times,serif" font-size="14.00" fill="#000000">code.txt</text>
</g>
<!-- 1&#45;&gt;2 -->
<g id="edge39" class="edge">
<title>1&#45;&gt;2</title>
<path fill="none" stroke="#000000" d="M1197.8679,-856.229C1188.6983,-843.0538 1177.6759,-827.2164 1168.5645,-814.1248"/>
<polygon fill="#000000" stroke="#000000" points="1171.1934,-811.775 1162.6081,-805.5665 1165.4479,-815.7737 1171.1934,-811.775"/>
</g>
<!-- 1&#45;&gt;4 -->
<g id="edge40" class="edge">
<title>1&#45;&gt;4</title>
<path fill="none" stroke="#000000" d="M1235.2698,-856.229C1242.233,-846.3733 1250.2488,-835.0278 1257.7177,-824.4564"/>
<polygon fill="#000000" stroke="#000000" points="1260.648,-826.3744 1263.5598,-816.1876 1254.9309,-822.3352 1260.648,-826.3744"/>
</g>
</g>
</svg>
