<svg width="2500px" height="2500px"
 viewBox="0.00 0.00 2027.33 920.31" xmlns="http://www.w3.org/2000/svg" xmlns:xlink="http://www.w3.org/1999/xlink">
<g id="graph0" class="graph" transform="scale(1.0 1.0) rotate(0) translate(4 916.3128)">
<title>%0</title>
<polygon fill="#ffffff" stroke="transparent" points="-4,4 -4,-916.3128 2023.3261,-916.3128 2023.3261,4 -4,4"/>
<!-- 3 -->
<g id="node1" class="node">
<title>3</title>
<ellipse fill="none" stroke="#000000" cx="835.4282" cy="-693.2346" rx="77.675" ry="29.3315"/>
<text text-anchor="middle" x="835.4282" y="-697.4346" font-family="Times,serif" font-size="14.00" fill="#000000"> STATEMENT</text>
<text text-anchor="middle" x="835.4282" y="-680.6346" font-family="Times,serif" font-size="14.00" fill="#000000">java.util.Scanner</text>
</g>
<!-- 2 -->
<g id="node2" class="node">
<title>2</title>
<ellipse fill="none" stroke="#000000" cx="837.4282" cy="-788.0659" rx="49.8579" ry="18"/>
<text text-anchor="middle" x="837.4282" y="-783.8659" font-family="Times,serif" font-size="14.00" fill="#000000"> IMPORT</text>
</g>
<!-- 2&#45;&gt;3 -->
<g id="edge1" class="edge">
<title>2&#45;&gt;3</title>
<path fill="none" stroke="#000000" d="M837.0426,-769.7815C836.8205,-759.2492 836.5323,-745.586 836.2611,-732.7237"/>
<polygon fill="#000000" stroke="#000000" points="839.7589,-732.5791 836.0487,-722.6552 832.7604,-732.7268 839.7589,-732.5791"/>
</g>
<!-- 8 -->
<g id="node3" class="node">
<title>8</title>
<ellipse fill="none" stroke="#000000" cx="59.4282" cy="-408.7408" rx="59.3565" ry="29.3315"/>
<text text-anchor="middle" x="59.4282" y="-412.9408" font-family="Times,serif" font-size="14.00" fill="#000000"> VARTYPE</text>
<text text-anchor="middle" x="59.4282" y="-396.1408" font-family="Times,serif" font-size="14.00" fill="#000000">val</text>
</g>
<!-- 9 -->
<g id="node4" class="node">
<title>9</title>
<ellipse fill="none" stroke="#000000" cx="183.4282" cy="-408.7408" rx="46.4831" ry="29.3315"/>
<text text-anchor="middle" x="183.4282" y="-412.9408" font-family="Times,serif" font-size="14.00" fill="#000000"> ID</text>
<text text-anchor="middle" x="183.4282" y="-396.1408" font-family="Times,serif" font-size="14.00" fill="#000000"> scanner </text>
</g>
<!-- 10 -->
<g id="node5" class="node">
<title>10</title>
<ellipse fill="none" stroke="#000000" cx="298.4282" cy="-408.7408" rx="50.7959" ry="29.3315"/>
<text text-anchor="middle" x="298.4282" y="-412.9408" font-family="Times,serif" font-size="14.00" fill="#000000"> TYPE</text>
<text text-anchor="middle" x="298.4282" y="-396.1408" font-family="Times,serif" font-size="14.00" fill="#000000">undefined</text>
</g>
<!-- 7 -->
<g id="node6" class="node">
<title>7</title>
<ellipse fill="none" stroke="#000000" cx="241.4282" cy="-503.5721" rx="63.6457" ry="29.3315"/>
<text text-anchor="middle" x="241.4282" y="-507.7721" font-family="Times,serif" font-size="14.00" fill="#000000"> VARIABLE</text>
<text text-anchor="middle" x="241.4282" y="-490.9721" font-family="Times,serif" font-size="14.00" fill="#000000">variable</text>
</g>
<!-- 7&#45;&gt;8 -->
<g id="edge2" class="edge">
<title>7&#45;&gt;8</title>
<path fill="none" stroke="#000000" d="M198.7573,-481.3383C172.1379,-467.4683 137.7459,-449.5483 109.792,-434.9829"/>
<polygon fill="#000000" stroke="#000000" points="111.0651,-431.6996 100.5794,-430.1826 107.8304,-437.9075 111.0651,-431.6996"/>
</g>
<!-- 7&#45;&gt;9 -->
<g id="edge3" class="edge">
<title>7&#45;&gt;9</title>
<path fill="none" stroke="#000000" d="M224.0263,-475.1196C218.1937,-465.5832 211.6118,-454.8215 205.4719,-444.7827"/>
<polygon fill="#000000" stroke="#000000" points="208.4235,-442.9005 200.22,-436.1958 202.4519,-446.5529 208.4235,-442.9005"/>
</g>
<!-- 7&#45;&gt;10 -->
<g id="edge4" class="edge">
<title>7&#45;&gt;10</title>
<path fill="none" stroke="#000000" d="M258.5301,-475.1196C264.1038,-465.8466 270.3738,-455.4151 276.2636,-445.6162"/>
<polygon fill="#000000" stroke="#000000" points="279.3829,-447.2204 281.5348,-436.8464 273.3833,-443.6142 279.3829,-447.2204"/>
</g>
<!-- 12 -->
<g id="node7" class="node">
<title>12</title>
<ellipse fill="none" stroke="#000000" cx="440.4282" cy="-408.7408" rx="72.7447" ry="29.3315"/>
<text text-anchor="middle" x="440.4282" y="-412.9408" font-family="Times,serif" font-size="14.00" fill="#000000"> STATEMENT</text>
<text text-anchor="middle" x="440.4282" y="-396.1408" font-family="Times,serif" font-size="14.00" fill="#000000">5</text>
</g>
<!-- 13 -->
<g id="node8" class="node">
<title>13</title>
<ellipse fill="none" stroke="#000000" cx="603.4282" cy="-408.7408" rx="72.7447" ry="29.3315"/>
<text text-anchor="middle" x="603.4282" y="-412.9408" font-family="Times,serif" font-size="14.00" fill="#000000"> STATEMENT</text>
<text text-anchor="middle" x="603.4282" y="-396.1408" font-family="Times,serif" font-size="14.00" fill="#000000">5</text>
</g>
<!-- 11 -->
<g id="node9" class="node">
<title>11</title>
<ellipse fill="none" stroke="#000000" cx="522.4282" cy="-503.5721" rx="73.9608" ry="29.3315"/>
<text text-anchor="middle" x="522.4282" y="-507.7721" font-family="Times,serif" font-size="14.00" fill="#000000"> EXPRESSION</text>
<text text-anchor="middle" x="522.4282" y="-490.9721" font-family="Times,serif" font-size="14.00" fill="#000000">+</text>
</g>
<!-- 11&#45;&gt;12 -->
<g id="edge5" class="edge">
<title>11&#45;&gt;12</title>
<path fill="none" stroke="#000000" d="M498.269,-475.6325C489.8363,-465.8802 480.2532,-454.7975 471.3467,-444.4974"/>
<polygon fill="#000000" stroke="#000000" points="473.8864,-442.0834 464.6981,-436.8084 468.5914,-446.662 473.8864,-442.0834"/>
</g>
<!-- 11&#45;&gt;13 -->
<g id="edge6" class="edge">
<title>11&#45;&gt;13</title>
<path fill="none" stroke="#000000" d="M546.2928,-475.6325C554.6227,-465.8802 564.0889,-454.7975 572.8868,-444.4974"/>
<polygon fill="#000000" stroke="#000000" points="575.6208,-446.6854 579.4543,-436.8084 570.2982,-442.139 575.6208,-446.6854"/>
</g>
<!-- 6 -->
<g id="node10" class="node">
<title>6</title>
<ellipse fill="none" stroke="#000000" cx="522.4282" cy="-598.4033" rx="73.9608" ry="29.3315"/>
<text text-anchor="middle" x="522.4282" y="-602.6033" font-family="Times,serif" font-size="14.00" fill="#000000"> EXPRESSION</text>
<text text-anchor="middle" x="522.4282" y="-585.8033" font-family="Times,serif" font-size="14.00" fill="#000000">=</text>
</g>
<!-- 6&#45;&gt;7 -->
<g id="edge7" class="edge">
<title>6&#45;&gt;7</title>
<path fill="none" stroke="#000000" d="M465.9017,-579.3269C418.6715,-563.3878 351.4444,-540.7001 302.8871,-524.3131"/>
<polygon fill="#000000" stroke="#000000" points="303.7239,-520.9016 293.1297,-521.0202 301.4855,-527.5341 303.7239,-520.9016"/>
</g>
<!-- 6&#45;&gt;11 -->
<g id="edge8" class="edge">
<title>6&#45;&gt;11</title>
<path fill="none" stroke="#000000" d="M522.4282,-568.918C522.4282,-560.8005 522.4282,-551.8609 522.4282,-543.2688"/>
<polygon fill="#000000" stroke="#000000" points="525.9283,-543.0392 522.4282,-533.0392 518.9283,-543.0392 525.9283,-543.0392"/>
</g>
<!-- 16 -->
<g id="node11" class="node">
<title>16</title>
<ellipse fill="none" stroke="#000000" cx="753.4282" cy="-408.7408" rx="59.3565" ry="29.3315"/>
<text text-anchor="middle" x="753.4282" y="-412.9408" font-family="Times,serif" font-size="14.00" fill="#000000"> VARTYPE</text>
<text text-anchor="middle" x="753.4282" y="-396.1408" font-family="Times,serif" font-size="14.00" fill="#000000">val</text>
</g>
<!-- 17 -->
<g id="node12" class="node">
<title>17</title>
<ellipse fill="none" stroke="#000000" cx="857.4282" cy="-408.7408" rx="27" ry="29.3315"/>
<text text-anchor="middle" x="857.4282" y="-412.9408" font-family="Times,serif" font-size="14.00" fill="#000000"> ID</text>
<text text-anchor="middle" x="857.4282" y="-396.1408" font-family="Times,serif" font-size="14.00" fill="#000000"> lol </text>
</g>
<!-- 18 -->
<g id="node13" class="node">
<title>18</title>
<ellipse fill="none" stroke="#000000" cx="953.4282" cy="-408.7408" rx="50.7959" ry="29.3315"/>
<text text-anchor="middle" x="953.4282" y="-412.9408" font-family="Times,serif" font-size="14.00" fill="#000000"> TYPE</text>
<text text-anchor="middle" x="953.4282" y="-396.1408" font-family="Times,serif" font-size="14.00" fill="#000000">undefined</text>
</g>
<!-- 15 -->
<g id="node14" class="node">
<title>15</title>
<ellipse fill="none" stroke="#000000" cx="882.4282" cy="-503.5721" rx="63.6457" ry="29.3315"/>
<text text-anchor="middle" x="882.4282" y="-507.7721" font-family="Times,serif" font-size="14.00" fill="#000000"> VARIABLE</text>
<text text-anchor="middle" x="882.4282" y="-490.9721" font-family="Times,serif" font-size="14.00" fill="#000000">variable</text>
</g>
<!-- 15&#45;&gt;16 -->
<g id="edge9" class="edge">
<title>15&#45;&gt;16</title>
<path fill="none" stroke="#000000" d="M848.1973,-478.408C831.9042,-466.4306 812.2786,-452.0033 795.1234,-439.392"/>
<polygon fill="#000000" stroke="#000000" points="797.0559,-436.4686 786.9256,-433.3656 792.9097,-442.1087 797.0559,-436.4686"/>
</g>
<!-- 15&#45;&gt;17 -->
<g id="edge10" class="edge">
<title>15&#45;&gt;17</title>
<path fill="none" stroke="#000000" d="M874.7234,-474.3458C872.4266,-465.6333 869.8751,-455.955 867.4529,-446.7668"/>
<polygon fill="#000000" stroke="#000000" points="870.8269,-445.8352 864.8933,-437.0578 864.0582,-447.6197 870.8269,-445.8352"/>
</g>
<!-- 15&#45;&gt;18 -->
<g id="edge11" class="edge">
<title>15&#45;&gt;18</title>
<path fill="none" stroke="#000000" d="M903.3466,-475.6325C910.7701,-465.7171 919.2234,-454.4266 927.0436,-443.9814"/>
<polygon fill="#000000" stroke="#000000" points="929.9562,-445.931 933.1478,-435.8284 924.3527,-441.7357 929.9562,-445.931"/>
</g>
<!-- 20 -->
<g id="node15" class="node">
<title>20</title>
<ellipse fill="none" stroke="#000000" cx="1063.4282" cy="-408.7408" rx="41.5837" ry="29.3315"/>
<text text-anchor="middle" x="1063.4282" y="-412.9408" font-family="Times,serif" font-size="14.00" fill="#000000"> ID</text>
<text text-anchor="middle" x="1063.4282" y="-396.1408" font-family="Times,serif" font-size="14.00" fill="#000000">scanner</text>
</g>
<!-- 21 -->
<g id="node16" class="node">
<title>21</title>
<ellipse fill="none" stroke="#000000" cx="1195.4282" cy="-408.7408" rx="72.7447" ry="29.3315"/>
<text text-anchor="middle" x="1195.4282" y="-412.9408" font-family="Times,serif" font-size="14.00" fill="#000000"> STATEMENT</text>
<text text-anchor="middle" x="1195.4282" y="-396.1408" font-family="Times,serif" font-size="14.00" fill="#000000">1</text>
</g>
<!-- 19 -->
<g id="node17" class="node">
<title>19</title>
<ellipse fill="none" stroke="#000000" cx="1063.4282" cy="-503.5721" rx="73.9608" ry="29.3315"/>
<text text-anchor="middle" x="1063.4282" y="-507.7721" font-family="Times,serif" font-size="14.00" fill="#000000"> EXPRESSION</text>
<text text-anchor="middle" x="1063.4282" y="-490.9721" font-family="Times,serif" font-size="14.00" fill="#000000">+</text>
</g>
<!-- 19&#45;&gt;20 -->
<g id="edge12" class="edge">
<title>19&#45;&gt;20</title>
<path fill="none" stroke="#000000" d="M1063.4282,-474.0867C1063.4282,-465.9693 1063.4282,-457.0296 1063.4282,-448.4375"/>
<polygon fill="#000000" stroke="#000000" points="1066.9283,-448.2079 1063.4282,-438.2079 1059.9283,-448.208 1066.9283,-448.2079"/>
</g>
<!-- 19&#45;&gt;21 -->
<g id="edge13" class="edge">
<title>19&#45;&gt;21</title>
<path fill="none" stroke="#000000" d="M1099.4978,-477.659C1115.3585,-466.2644 1134.1449,-452.7679 1150.8703,-440.7521"/>
<polygon fill="#000000" stroke="#000000" points="1153.3229,-443.2996 1159.4023,-434.6225 1149.2387,-437.6146 1153.3229,-443.2996"/>
</g>
<!-- 14 -->
<g id="node18" class="node">
<title>14</title>
<ellipse fill="none" stroke="#000000" cx="972.4282" cy="-598.4033" rx="73.9608" ry="29.3315"/>
<text text-anchor="middle" x="972.4282" y="-602.6033" font-family="Times,serif" font-size="14.00" fill="#000000"> EXPRESSION</text>
<text text-anchor="middle" x="972.4282" y="-585.8033" font-family="Times,serif" font-size="14.00" fill="#000000">=</text>
</g>
<!-- 14&#45;&gt;15 -->
<g id="edge14" class="edge">
<title>14&#45;&gt;15</title>
<path fill="none" stroke="#000000" d="M946.1546,-570.7193C936.4587,-560.5029 925.3511,-548.7991 915.154,-538.0546"/>
<polygon fill="#000000" stroke="#000000" points="917.6912,-535.6436 908.2685,-530.7995 912.6137,-540.4623 917.6912,-535.6436"/>
</g>
<!-- 14&#45;&gt;19 -->
<g id="edge15" class="edge">
<title>14&#45;&gt;19</title>
<path fill="none" stroke="#000000" d="M998.9938,-570.7193C1008.6187,-560.6892 1019.6194,-549.2253 1029.7741,-538.6431"/>
<polygon fill="#000000" stroke="#000000" points="1032.5885,-540.7653 1036.9869,-531.1266 1027.5377,-535.9186 1032.5885,-540.7653"/>
</g>
<!-- 24 -->
<g id="node19" class="node">
<title>24</title>
<ellipse fill="none" stroke="#000000" cx="1313.4282" cy="-408.7408" rx="27" ry="29.3315"/>
<text text-anchor="middle" x="1313.4282" y="-412.9408" font-family="Times,serif" font-size="14.00" fill="#000000"> ID</text>
<text text-anchor="middle" x="1313.4282" y="-396.1408" font-family="Times,serif" font-size="14.00" fill="#000000">lol</text>
</g>
<!-- 25 -->
<g id="node20" class="node">
<title>25</title>
<ellipse fill="none" stroke="#000000" cx="1431.4282" cy="-408.7408" rx="72.7447" ry="29.3315"/>
<text text-anchor="middle" x="1431.4282" y="-412.9408" font-family="Times,serif" font-size="14.00" fill="#000000"> STATEMENT</text>
<text text-anchor="middle" x="1431.4282" y="-396.1408" font-family="Times,serif" font-size="14.00" fill="#000000">10</text>
</g>
<!-- 23 -->
<g id="node21" class="node">
<title>23</title>
<ellipse fill="none" stroke="#000000" cx="1422.4282" cy="-503.5721" rx="73.9608" ry="29.3315"/>
<text text-anchor="middle" x="1422.4282" y="-507.7721" font-family="Times,serif" font-size="14.00" fill="#000000"> EXPRESSION</text>
<text text-anchor="middle" x="1422.4282" y="-490.9721" font-family="Times,serif" font-size="14.00" fill="#000000">&gt;</text>
</g>
<!-- 23&#45;&gt;24 -->
<g id="edge16" class="edge">
<title>23&#45;&gt;24</title>
<path fill="none" stroke="#000000" d="M1391.4848,-476.6509C1376.0488,-463.2214 1357.4909,-447.0758 1342.3437,-433.8976"/>
<polygon fill="#000000" stroke="#000000" points="1344.6099,-431.2299 1334.7681,-427.3068 1340.0152,-436.511 1344.6099,-431.2299"/>
</g>
<!-- 23&#45;&gt;25 -->
<g id="edge17" class="edge">
<title>23&#45;&gt;25</title>
<path fill="none" stroke="#000000" d="M1425.2265,-474.0867C1425.9969,-465.9693 1426.8454,-457.0296 1427.6608,-448.4375"/>
<polygon fill="#000000" stroke="#000000" points="1431.1711,-448.4939 1428.6316,-438.2079 1424.2024,-447.8325 1431.1711,-448.4939"/>
</g>
<!-- 29 -->
<g id="node22" class="node">
<title>29</title>
<ellipse fill="none" stroke="#000000" cx="1350.4282" cy="-219.0782" rx="27" ry="29.3315"/>
<text text-anchor="middle" x="1350.4282" y="-223.2782" font-family="Times,serif" font-size="14.00" fill="#000000"> ID</text>
<text text-anchor="middle" x="1350.4282" y="-206.4782" font-family="Times,serif" font-size="14.00" fill="#000000">line</text>
</g>
<!-- 30 -->
<g id="node23" class="node">
<title>30</title>
<ellipse fill="none" stroke="#000000" cx="1425.4282" cy="-219.0782" rx="30.0198" ry="29.3315"/>
<text text-anchor="middle" x="1425.4282" y="-223.2782" font-family="Times,serif" font-size="14.00" fill="#000000"> ID</text>
<text text-anchor="middle" x="1425.4282" y="-206.4782" font-family="Times,serif" font-size="14.00" fill="#000000">lines</text>
</g>
<!-- 28 -->
<g id="node24" class="node">
<title>28</title>
<ellipse fill="none" stroke="#000000" cx="1422.4282" cy="-313.9095" rx="73.9608" ry="29.3315"/>
<text text-anchor="middle" x="1422.4282" y="-318.1095" font-family="Times,serif" font-size="14.00" fill="#000000"> EXPRESSION</text>
<text text-anchor="middle" x="1422.4282" y="-301.3095" font-family="Times,serif" font-size="14.00" fill="#000000">in</text>
</g>
<!-- 28&#45;&gt;29 -->
<g id="edge18" class="edge">
<title>28&#45;&gt;29</title>
<path fill="none" stroke="#000000" d="M1401.0208,-285.7137C1392.4816,-274.4667 1382.6238,-261.4831 1373.8909,-249.9809"/>
<polygon fill="#000000" stroke="#000000" points="1376.6003,-247.7614 1367.7656,-241.9133 1371.0251,-251.9944 1376.6003,-247.7614"/>
</g>
<!-- 28&#45;&gt;30 -->
<g id="edge19" class="edge">
<title>28&#45;&gt;30</title>
<path fill="none" stroke="#000000" d="M1423.361,-284.4241C1423.6178,-276.3067 1423.9006,-267.3671 1424.1724,-258.7749"/>
<polygon fill="#000000" stroke="#000000" points="1427.678,-258.6511 1424.496,-248.5454 1420.6815,-258.4297 1427.678,-258.6511"/>
</g>
<!-- 34 -->
<g id="node25" class="node">
<title>34</title>
<ellipse fill="none" stroke="#000000" cx="1282.4282" cy="-29.4156" rx="59.3565" ry="29.3315"/>
<text text-anchor="middle" x="1282.4282" y="-33.6156" font-family="Times,serif" font-size="14.00" fill="#000000"> VARTYPE</text>
<text text-anchor="middle" x="1282.4282" y="-16.8156" font-family="Times,serif" font-size="14.00" fill="#000000">val</text>
</g>
<!-- 35 -->
<g id="node26" class="node">
<title>35</title>
<ellipse fill="none" stroke="#000000" cx="1398.4282" cy="-29.4156" rx="38.622" ry="29.3315"/>
<text text-anchor="middle" x="1398.4282" y="-33.6156" font-family="Times,serif" font-size="14.00" fill="#000000"> ID</text>
<text text-anchor="middle" x="1398.4282" y="-16.8156" font-family="Times,serif" font-size="14.00" fill="#000000"> string </text>
</g>
<!-- 36 -->
<g id="node27" class="node">
<title>36</title>
<ellipse fill="none" stroke="#000000" cx="1506.4282" cy="-29.4156" rx="50.7959" ry="29.3315"/>
<text text-anchor="middle" x="1506.4282" y="-33.6156" font-family="Times,serif" font-size="14.00" fill="#000000"> TYPE</text>
<text text-anchor="middle" x="1506.4282" y="-16.8156" font-family="Times,serif" font-size="14.00" fill="#000000">undefined</text>
</g>
<!-- 33 -->
<g id="node28" class="node">
<title>33</title>
<ellipse fill="none" stroke="#000000" cx="1398.4282" cy="-124.2469" rx="63.6457" ry="29.3315"/>
<text text-anchor="middle" x="1398.4282" y="-128.4469" font-family="Times,serif" font-size="14.00" fill="#000000"> VARIABLE</text>
<text text-anchor="middle" x="1398.4282" y="-111.6469" font-family="Times,serif" font-size="14.00" fill="#000000">variable</text>
</g>
<!-- 33&#45;&gt;34 -->
<g id="edge20" class="edge">
<title>33&#45;&gt;34</title>
<path fill="none" stroke="#000000" d="M1367.037,-98.5842C1352.9968,-87.1062 1336.3008,-73.457 1321.4648,-61.3285"/>
<polygon fill="#000000" stroke="#000000" points="1323.4,-58.3898 1313.4426,-54.7703 1318.9695,-63.8093 1323.4,-58.3898"/>
</g>
<!-- 33&#45;&gt;35 -->
<g id="edge21" class="edge">
<title>33&#45;&gt;35</title>
<path fill="none" stroke="#000000" d="M1398.4282,-94.7615C1398.4282,-86.6441 1398.4282,-77.7045 1398.4282,-69.1123"/>
<polygon fill="#000000" stroke="#000000" points="1401.9283,-68.8828 1398.4282,-58.8828 1394.9283,-68.8828 1401.9283,-68.8828"/>
</g>
<!-- 33&#45;&gt;36 -->
<g id="edge22" class="edge">
<title>33&#45;&gt;36</title>
<path fill="none" stroke="#000000" d="M1428.2256,-98.0828C1441.2738,-86.6256 1456.6991,-73.0812 1470.3871,-61.0622"/>
<polygon fill="#000000" stroke="#000000" points="1473.0095,-63.4174 1478.2145,-54.1892 1468.3908,-58.1573 1473.0095,-63.4174"/>
</g>
<!-- 37 -->
<g id="node29" class="node">
<title>37</title>
<ellipse fill="none" stroke="#000000" cx="1552.4282" cy="-124.2469" rx="72.7447" ry="29.3315"/>
<text text-anchor="middle" x="1552.4282" y="-128.4469" font-family="Times,serif" font-size="14.00" fill="#000000"> STATEMENT</text>
<text text-anchor="middle" x="1552.4282" y="-111.6469" font-family="Times,serif" font-size="14.00" fill="#000000">&#39;123&#39;</text>
</g>
<!-- 32 -->
<g id="node30" class="node">
<title>32</title>
<ellipse fill="none" stroke="#000000" cx="1552.4282" cy="-219.0782" rx="73.9608" ry="29.3315"/>
<text text-anchor="middle" x="1552.4282" y="-223.2782" font-family="Times,serif" font-size="14.00" fill="#000000"> EXPRESSION</text>
<text text-anchor="middle" x="1552.4282" y="-206.4782" font-family="Times,serif" font-size="14.00" fill="#000000">=</text>
</g>
<!-- 32&#45;&gt;33 -->
<g id="edge23" class="edge">
<title>32&#45;&gt;33</title>
<path fill="none" stroke="#000000" d="M1511.9665,-194.1624C1491.5237,-181.574 1466.6079,-166.2311 1445.3308,-153.1289"/>
<polygon fill="#000000" stroke="#000000" points="1447.115,-150.1173 1436.7647,-147.854 1443.4445,-156.0778 1447.115,-150.1173"/>
</g>
<!-- 32&#45;&gt;37 -->
<g id="edge24" class="edge">
<title>32&#45;&gt;37</title>
<path fill="none" stroke="#000000" d="M1552.4282,-189.5928C1552.4282,-181.4754 1552.4282,-172.5358 1552.4282,-163.9436"/>
<polygon fill="#000000" stroke="#000000" points="1555.9283,-163.714 1552.4282,-153.7141 1548.9283,-163.7141 1555.9283,-163.714"/>
</g>
<!-- 31 -->
<g id="node31" class="node">
<title>31</title>
<ellipse fill="none" stroke="#000000" cx="1555.4282" cy="-313.9095" rx="40.6109" ry="18"/>
<text text-anchor="middle" x="1555.4282" y="-309.7095" font-family="Times,serif" font-size="14.00" fill="#000000"> BODY</text>
</g>
<!-- 31&#45;&gt;32 -->
<g id="edge25" class="edge">
<title>31&#45;&gt;32</title>
<path fill="none" stroke="#000000" d="M1554.8498,-295.6251C1554.5166,-285.0928 1554.0844,-271.4296 1553.6775,-258.5673"/>
<polygon fill="#000000" stroke="#000000" points="1557.1735,-258.3831 1553.3589,-248.4988 1550.177,-258.6045 1557.1735,-258.3831"/>
</g>
<!-- 27 -->
<g id="node32" class="node">
<title>27</title>
<ellipse fill="none" stroke="#000000" cx="1555.4282" cy="-408.7408" rx="33.0803" ry="29.3315"/>
<text text-anchor="middle" x="1555.4282" y="-412.9408" font-family="Times,serif" font-size="14.00" fill="#000000"> FOR</text>
<text text-anchor="middle" x="1555.4282" y="-396.1408" font-family="Times,serif" font-size="14.00" fill="#000000">for</text>
</g>
<!-- 27&#45;&gt;28 -->
<g id="edge26" class="edge">
<title>27&#45;&gt;28</title>
<path fill="none" stroke="#000000" d="M1529.4688,-390.2312C1511.7287,-377.5822 1487.7642,-360.4952 1467.0078,-345.6955"/>
<polygon fill="#000000" stroke="#000000" points="1468.81,-342.682 1458.6358,-339.7262 1464.7461,-348.3815 1468.81,-342.682"/>
</g>
<!-- 27&#45;&gt;31 -->
<g id="edge27" class="edge">
<title>27&#45;&gt;31</title>
<path fill="none" stroke="#000000" d="M1555.4282,-379.2554C1555.4282,-367.4331 1555.4282,-353.8668 1555.4282,-342.1699"/>
<polygon fill="#000000" stroke="#000000" points="1558.9283,-342.0572 1555.4282,-332.0572 1551.9283,-342.0572 1558.9283,-342.0572"/>
</g>
<!-- 26 -->
<g id="node33" class="node">
<title>26</title>
<ellipse fill="none" stroke="#000000" cx="1555.4282" cy="-503.5721" rx="40.6109" ry="18"/>
<text text-anchor="middle" x="1555.4282" y="-499.3721" font-family="Times,serif" font-size="14.00" fill="#000000"> BODY</text>
</g>
<!-- 26&#45;&gt;27 -->
<g id="edge28" class="edge">
<title>26&#45;&gt;27</title>
<path fill="none" stroke="#000000" d="M1555.4282,-485.2876C1555.4282,-474.7553 1555.4282,-461.0921 1555.4282,-448.2298"/>
<polygon fill="#000000" stroke="#000000" points="1558.9283,-448.1613 1555.4282,-438.1613 1551.9283,-448.1614 1558.9283,-448.1613"/>
</g>
<!-- 42 -->
<g id="node34" class="node">
<title>42</title>
<ellipse fill="none" stroke="#000000" cx="1702.4282" cy="-124.2469" rx="59.3565" ry="29.3315"/>
<text text-anchor="middle" x="1702.4282" y="-128.4469" font-family="Times,serif" font-size="14.00" fill="#000000"> VARTYPE</text>
<text text-anchor="middle" x="1702.4282" y="-111.6469" font-family="Times,serif" font-size="14.00" fill="#000000">var</text>
</g>
<!-- 43 -->
<g id="node35" class="node">
<title>43</title>
<ellipse fill="none" stroke="#000000" cx="1839.4282" cy="-124.2469" rx="59.8936" ry="29.3315"/>
<text text-anchor="middle" x="1839.4282" y="-128.4469" font-family="Times,serif" font-size="14.00" fill="#000000"> ID</text>
<text text-anchor="middle" x="1839.4282" y="-111.6469" font-family="Times,serif" font-size="14.00" fill="#000000"> anotherLol </text>
</g>
<!-- 44 -->
<g id="node36" class="node">
<title>44</title>
<ellipse fill="none" stroke="#000000" cx="1968.4282" cy="-124.2469" rx="50.7959" ry="29.3315"/>
<text text-anchor="middle" x="1968.4282" y="-128.4469" font-family="Times,serif" font-size="14.00" fill="#000000"> TYPE</text>
<text text-anchor="middle" x="1968.4282" y="-111.6469" font-family="Times,serif" font-size="14.00" fill="#000000">undefined</text>
</g>
<!-- 41 -->
<g id="node37" class="node">
<title>41</title>
<ellipse fill="none" stroke="#000000" cx="1773.4282" cy="-219.0782" rx="63.6457" ry="29.3315"/>
<text text-anchor="middle" x="1773.4282" y="-223.2782" font-family="Times,serif" font-size="14.00" fill="#000000"> VARIABLE</text>
<text text-anchor="middle" x="1773.4282" y="-206.4782" font-family="Times,serif" font-size="14.00" fill="#000000">variable</text>
</g>
<!-- 41&#45;&gt;42 -->
<g id="edge29" class="edge">
<title>41&#45;&gt;42</title>
<path fill="none" stroke="#000000" d="M1752.5099,-191.1386C1745.2154,-181.3957 1736.9268,-170.325 1729.2214,-160.0333"/>
<polygon fill="#000000" stroke="#000000" points="1731.9922,-157.8942 1723.197,-151.9868 1726.3887,-162.0895 1731.9922,-157.8942"/>
</g>
<!-- 41&#45;&gt;43 -->
<g id="edge30" class="edge">
<title>41&#45;&gt;43</title>
<path fill="none" stroke="#000000" d="M1793.0517,-190.8825C1799.7014,-181.328 1807.2233,-170.5202 1814.2444,-160.432"/>
<polygon fill="#000000" stroke="#000000" points="1817.1544,-162.3777 1819.9941,-152.1705 1811.4089,-158.379 1817.1544,-162.3777"/>
</g>
<!-- 41&#45;&gt;44 -->
<g id="edge31" class="edge">
<title>41&#45;&gt;44</title>
<path fill="none" stroke="#000000" d="M1817.5334,-197.7698C1843.9202,-185.0059 1878.1106,-168.4396 1908.4282,-153.6626 1912.2411,-151.8041 1916.1888,-149.8765 1920.1549,-147.9374"/>
<polygon fill="#000000" stroke="#000000" points="1921.9443,-150.9584 1929.3881,-143.4191 1918.8674,-144.6709 1921.9443,-150.9584"/>
</g>
<!-- 45 -->
<g id="node38" class="node">
<title>45</title>
<ellipse fill="none" stroke="#000000" cx="1927.4282" cy="-219.0782" rx="72.7447" ry="29.3315"/>
<text text-anchor="middle" x="1927.4282" y="-223.2782" font-family="Times,serif" font-size="14.00" fill="#000000"> STATEMENT</text>
<text text-anchor="middle" x="1927.4282" y="-206.4782" font-family="Times,serif" font-size="14.00" fill="#000000">&#39;HelloWorld&#39;</text>
</g>
<!-- 40 -->
<g id="node39" class="node">
<title>40</title>
<ellipse fill="none" stroke="#000000" cx="1773.4282" cy="-313.9095" rx="73.9608" ry="29.3315"/>
<text text-anchor="middle" x="1773.4282" y="-318.1095" font-family="Times,serif" font-size="14.00" fill="#000000"> EXPRESSION</text>
<text text-anchor="middle" x="1773.4282" y="-301.3095" font-family="Times,serif" font-size="14.00" fill="#000000">=</text>
</g>
<!-- 40&#45;&gt;41 -->
<g id="edge32" class="edge">
<title>40&#45;&gt;41</title>
<path fill="none" stroke="#000000" d="M1773.4282,-284.4241C1773.4282,-276.3067 1773.4282,-267.3671 1773.4282,-258.7749"/>
<polygon fill="#000000" stroke="#000000" points="1776.9283,-258.5453 1773.4282,-248.5454 1769.9283,-258.5454 1776.9283,-258.5453"/>
</g>
<!-- 40&#45;&gt;45 -->
<g id="edge33" class="edge">
<title>40&#45;&gt;45</title>
<path fill="none" stroke="#000000" d="M1813.8899,-288.9937C1833.774,-276.7493 1857.89,-261.899 1878.7731,-249.0394"/>
<polygon fill="#000000" stroke="#000000" points="1880.8235,-251.8872 1887.5033,-243.6635 1877.153,-245.9267 1880.8235,-251.8872"/>
</g>
<!-- 39 -->
<g id="node40" class="node">
<title>39</title>
<ellipse fill="none" stroke="#000000" cx="1743.4282" cy="-408.7408" rx="40.6109" ry="18"/>
<text text-anchor="middle" x="1743.4282" y="-404.5408" font-family="Times,serif" font-size="14.00" fill="#000000"> BODY</text>
</g>
<!-- 39&#45;&gt;40 -->
<g id="edge34" class="edge">
<title>39&#45;&gt;40</title>
<path fill="none" stroke="#000000" d="M1749.071,-390.9037C1752.4524,-380.2151 1756.89,-366.1875 1761.05,-353.0376"/>
<polygon fill="#000000" stroke="#000000" points="1764.4757,-353.8128 1764.1549,-343.2228 1757.8017,-351.7014 1764.4757,-353.8128"/>
</g>
<!-- 38 -->
<g id="node41" class="node">
<title>38</title>
<ellipse fill="none" stroke="#000000" cx="1713.4282" cy="-503.5721" rx="37.3691" ry="29.3315"/>
<text text-anchor="middle" x="1713.4282" y="-507.7721" font-family="Times,serif" font-size="14.00" fill="#000000"> ELSE</text>
<text text-anchor="middle" x="1713.4282" y="-490.9721" font-family="Times,serif" font-size="14.00" fill="#000000">else</text>
</g>
<!-- 38&#45;&gt;39 -->
<g id="edge35" class="edge">
<title>38&#45;&gt;39</title>
<path fill="none" stroke="#000000" d="M1722.5106,-474.8622C1726.3909,-462.5965 1730.9004,-448.3419 1734.7367,-436.2152"/>
<polygon fill="#000000" stroke="#000000" points="1738.093,-437.2096 1737.7722,-426.6196 1731.419,-435.0982 1738.093,-437.2096"/>
</g>
<!-- 22 -->
<g id="node42" class="node">
<title>22</title>
<ellipse fill="none" stroke="#000000" cx="1488.4282" cy="-598.4033" rx="27" ry="29.3315"/>
<text text-anchor="middle" x="1488.4282" y="-602.6033" font-family="Times,serif" font-size="14.00" fill="#000000"> IF</text>
<text text-anchor="middle" x="1488.4282" y="-585.8033" font-family="Times,serif" font-size="14.00" fill="#000000">if</text>
</g>
<!-- 22&#45;&gt;23 -->
<g id="edge36" class="edge">
<title>22&#45;&gt;23</title>
<path fill="none" stroke="#000000" d="M1472.1136,-574.9619C1464.8644,-564.5459 1456.1573,-552.0353 1448.0712,-540.4168"/>
<polygon fill="#000000" stroke="#000000" points="1450.9079,-538.3657 1442.3227,-532.1572 1445.1624,-542.3644 1450.9079,-538.3657"/>
</g>
<!-- 22&#45;&gt;26 -->
<g id="edge37" class="edge">
<title>22&#45;&gt;26</title>
<path fill="none" stroke="#000000" d="M1504.99,-574.9619C1514.8098,-561.063 1527.2646,-543.4346 1537.3407,-529.173"/>
<polygon fill="#000000" stroke="#000000" points="1540.3505,-530.9785 1543.2623,-520.7917 1534.6334,-526.9393 1540.3505,-530.9785"/>
</g>
<!-- 22&#45;&gt;38 -->
<g id="edge38" class="edge">
<title>22&#45;&gt;38</title>
<path fill="none" stroke="#000000" d="M1513.8012,-587.7093C1551.8914,-571.6554 1624.3161,-541.1304 1670.6643,-521.5959"/>
<polygon fill="#000000" stroke="#000000" points="1672.2814,-524.7126 1680.137,-517.6034 1669.5626,-518.2621 1672.2814,-524.7126"/>
</g>
<!-- 5 -->
<g id="node43" class="node">
<title>5</title>
<ellipse fill="none" stroke="#000000" cx="972.4282" cy="-693.2346" rx="40.6109" ry="18"/>
<text text-anchor="middle" x="972.4282" y="-689.0346" font-family="Times,serif" font-size="14.00" fill="#000000"> BODY</text>
</g>
<!-- 5&#45;&gt;6 -->
<g id="edge39" class="edge">
<title>5&#45;&gt;6</title>
<path fill="none" stroke="#000000" d="M950.4038,-677.8993C941.9889,-672.6913 932.0889,-667.312 922.4282,-663.819 817.136,-625.7487 688.2065,-609.732 605.6978,-603.0615"/>
<polygon fill="#000000" stroke="#000000" points="605.8632,-599.5639 595.6211,-602.2747 605.3183,-606.5426 605.8632,-599.5639"/>
</g>
<!-- 5&#45;&gt;14 -->
<g id="edge40" class="edge">
<title>5&#45;&gt;14</title>
<path fill="none" stroke="#000000" d="M972.4282,-674.9502C972.4282,-664.4179 972.4282,-650.7547 972.4282,-637.8924"/>
<polygon fill="#000000" stroke="#000000" points="975.9283,-637.8239 972.4282,-627.8239 968.9283,-637.8239 975.9283,-637.8239"/>
</g>
<!-- 5&#45;&gt;22 -->
<g id="edge41" class="edge">
<title>5&#45;&gt;22</title>
<path fill="none" stroke="#000000" d="M1010.3709,-686.2615C1106.273,-668.6364 1357.4453,-622.4756 1451.8528,-605.1252"/>
<polygon fill="#000000" stroke="#000000" points="1452.5901,-608.5484 1461.7927,-603.2985 1451.3248,-601.6637 1452.5901,-608.5484"/>
</g>
<!-- 4 -->
<g id="node44" class="node">
<title>4</title>
<ellipse fill="none" stroke="#000000" cx="970.4282" cy="-788.0659" rx="63.6457" ry="29.3315"/>
<text text-anchor="middle" x="970.4282" y="-792.2659" font-family="Times,serif" font-size="14.00" fill="#000000"> FUNCTION</text>
<text text-anchor="middle" x="970.4282" y="-775.4659" font-family="Times,serif" font-size="14.00" fill="#000000">main</text>
</g>
<!-- 4&#45;&gt;5 -->
<g id="edge42" class="edge">
<title>4&#45;&gt;5</title>
<path fill="none" stroke="#000000" d="M971.0501,-758.5805C971.2994,-746.7582 971.5855,-733.1919 971.8322,-721.4951"/>
<polygon fill="#000000" stroke="#000000" points="975.3338,-721.4539 972.0455,-711.3823 968.3353,-721.3063 975.3338,-721.4539"/>
</g>
<!-- 1 -->
<g id="node45" class="node">
<title>1</title>
<ellipse fill="none" stroke="#000000" cx="903.4282" cy="-882.8972" rx="42.8576" ry="29.3315"/>
<text text-anchor="middle" x="903.4282" y="-887.0972" font-family="Times,serif" font-size="14.00" fill="#000000"> FILE</text>
<text text-anchor="middle" x="903.4282" y="-870.2972" font-family="Times,serif" font-size="14.00" fill="#000000">code.txt</text>
</g>
<!-- 1&#45;&gt;2 -->
<g id="edge43" class="edge">
<title>1&#45;&gt;2</title>
<path fill="none" stroke="#000000" d="M884.8679,-856.229C875.6983,-843.0538 864.6759,-827.2164 855.5645,-814.1248"/>
<polygon fill="#000000" stroke="#000000" points="858.1934,-811.775 849.6081,-805.5665 852.4479,-815.7737 858.1934,-811.775"/>
</g>
<!-- 1&#45;&gt;4 -->
<g id="edge44" class="edge">
<title>1&#45;&gt;4</title>
<path fill="none" stroke="#000000" d="M922.2698,-856.229C929.233,-846.3733 937.2488,-835.0278 944.7177,-824.4564"/>
<polygon fill="#000000" stroke="#000000" points="947.648,-826.3744 950.5598,-816.1876 941.9309,-822.3352 947.648,-826.3744"/>
</g>
</g>
</svg>
